<?xml version="1.0" encoding="utf-8"?>
<!-- Generator: Adobe Illustrator 24.3.0, SVG Export Plug-In . SVG Version: 6.00 Build 0)  -->
<svg version="1.1" id="Layer_1" xmlns="http://www.w3.org/2000/svg" xmlns:xlink="http://www.w3.org/1999/xlink" x="0px" y="0px"
	 viewBox="0 0 1920 1080" style="enable-background:new 0 0 1920 1080;" xml:space="preserve">
<style type="text/css">
	.st0{fill:#003670;}
	.st1{fill:#002752;}
	.st2{fill:#004FA3;}
	.st3{fill:#003166;}
	.st4{fill:#0059B8;}
	.st5{fill:#001E3D;}
	.st6{fill:#001429;}
	.st7{fill:#00458F;}
	.st8{fill:#006CE0;}
	.st9{fill:#0063CC;}
	.st10{fill:#004FA3;stroke:#003670;stroke-linejoin:round;stroke-miterlimit:10;}
	.st11{fill:#002752;stroke:#003670;stroke-linejoin:round;stroke-miterlimit:10;}
</style>
<rect class="st0" width="1920" height="1080"/>
<g>
	<polygon class="st1" points="1692.4,576.9 1648.8,665.4 1522.8,592.5 1589.1,547.7 	"/>
	<path class="st1" d="M1648.6,664.7l-124.9-72.3l65.5-44.2l102.5,29L1648.6,664.7 M1649,666.1l44.1-89.5L1589,547.1l-67.2,45.4
		L1649,666.1L1649,666.1z"/>
</g>
<g>
	<polygon class="st0" points="1439.1,804.5 1179,804.5 1328.5,593.5 	"/>
	<path class="st0" d="M1180,804l148.4-209.6L1438.3,804H1180 M1178,805h261.9l-111.4-212.5L1178,805L1178,805z"/>
</g>
<g>
	<polygon class="st2" points="319.2,827.5 377.8,844.7 479.3,981.8 313.6,910.1 272.6,803.6 	"/>
	<path class="st2" d="M477.8,980.6l-163.7-70.9l-40.5-105.1l45.4,23.3c0.1,0,0.1,0.1,0.2,0.1l58.4,17.2L477.8,980.6 M480.8,983
		L378.1,844.3L319.4,827l-47.7-24.5l41.6,108.1l0.1-0.1L480.8,983L480.8,983z"/>
</g>
<g>
	<polygon class="st0" points="271.2,802.3 172.1,889.6 191.5,768.3 253,615.5 	"/>
	<path class="st0" d="M172.8,888.3L192,768.4l60.7-150.8l18,184.5L172.8,888.3 M171.4,890.9l100.3-88.4l-18.4-189.1L191,768.1
		L171.4,890.9L171.4,890.9z"/>
</g>
<g>
	<polygon class="st3" points="1063.9,1027.5 980.3,1079.5 845.7,1079.5 953.2,1024 	"/>
	<path class="st0" d="M847.8,1079l105.5-54.5l108.9,3.5l-82,51h-59H847.8 M843.7,1080h77.5h59.3l85.1-52.9l-112.5-3.6L843.7,1080
		L843.7,1080z"/>
</g>
<g>
	<polygon class="st3" points="1682.5,347.1 1606,421.3 1519.7,414.1 1483.3,225.2 	"/>
	<path class="st3" d="M1605.8,420.8l-85.7-7.2L1484,226.2l197.7,121L1605.8,420.8 M1606.2,421.8l77.1-74.8l-200.7-122.9l36.7,190.4
		L1606.2,421.8L1606.2,421.8z"/>
</g>
<g>
	<path class="st3" d="M1269.5,319.1c0.1,0.1,0.2,0.1,0.4,0.1c0.1,0,0.1,0,0.2,0l210.9-93.7l-142.8,176.3l-97.3-4.9l-67.5-175.5
		L1269.5,319.1z"/>
	<path class="st3" d="M1337.9,401.2l-96.7-4.8l-66.5-173l94.5,96.1c0.2,0.2,0.5,0.3,0.7,0.3c0.1,0,0.3,0,0.4-0.1l209-92.9
		L1337.9,401.2 M1338.3,402.2l144.3-178.1l-212.8,94.6l-97.9-99.5l68.5,178.1L1338.3,402.2L1338.3,402.2z"/>
</g>
<g>
	<polygon class="st3" points="1439.3,805.5 1434.6,829.3 1351.6,939.3 1179.5,805.5 	"/>
	<path class="st3" d="M1351.5,938.6L1181,806h257.7l-4.6,23.1L1351.5,938.6 M1351.7,940l83.3-110.5l4.9-24.5H1178L1351.7,940
		L1351.7,940z"/>
</g>
<g>
	<polygon class="st4" points="743.6,642.4 579.9,654.5 684.1,529.1 857.6,525.6 	"/>
	<path class="st4" d="M581,654l103.3-124.3l172.1-3.5l-113,115.9L581,654 M578.8,655.1l165.1-12.2l115-117.9l-175,3.6L578.8,655.1
		L578.8,655.1z"/>
</g>
<g>
	<polygon class="st3" points="1536,0.6 1656.8,134.4 1613.2,162.3 1482.8,223.5 1377.9,70.4 1361.8,0.6 	"/>
	<path class="st3" d="M1483,222.9L1378.4,70.3l-16-69.2H1482h30.6h15.1h8.1l120.3,133.2l-43,27.5L1483,222.9 M1482.6,224.1
		l130.9-61.4l44.1-28.2L1536.2,0l-8.5,0l-15.1,0L1482,0l-120.9,0l16.3,70.6L1482.6,224.1L1482.6,224.1z"/>
</g>
<g>
	<path class="st0" d="M1360.7,0.6l16.2,70.2c0,0.1,0,0.1,0.1,0.2l104.5,152.3L1242,161.1L1129.1,0.5L1360.7,0.6L1360.7,0.6z"/>
	<path class="st0" d="M1480.3,222.5l-237.9-61.8L1130.1,1.1h107h21.4h101.8l16.1,69.8c0,0.1,0.1,0.2,0.1,0.3L1480.3,222.5
		 M1482.6,224.1L1377.4,70.6L1361.1,0l-102.6,0l-21.4,0l-109,0l113.6,161.5L1482.6,224.1L1482.6,224.1z"/>
</g>
<g>
	<polygon class="st1" points="212.7,924.4 193.8,905.4 172.2,890.9 270.2,804.5 	"/>
	<path class="st1" d="M212.6,923.5L194.2,905c0,0-0.1-0.1-0.2-0.1l-21-14.1l95.6-84.3L212.6,923.5 M212.9,925.2l58.8-122.7
		l-100.3,88.4l22.1,14.8L212.9,925.2L212.9,925.2z"/>
</g>
<g>
	<polygon class="st5" points="1647.5,665.8 1534.4,680.4 1522.5,593.5 	"/>
	<path class="st5" d="M1534.9,679.8l-11.8-85.4l122.9,71.1L1534.9,679.8 M1534,680.9l115-14.8l-127.2-73.6L1534,680.9L1534,680.9z"
		/>
</g>
<g>
	<polygon class="st6" points="1533.5,680.8 1440.6,803.3 1453.8,682.4 1521.5,593.8 	"/>
	<path class="st6" d="M1441.3,801.5l13-118.9l66.9-87.6l11.8,85.6L1441.3,801.5 M1439.9,805l94.1-124.1l-12.2-88.4l-68.5,89.7
		L1439.9,805L1439.9,805z"/>
</g>
<g>
	<polygon class="st7" points="377.7,843.7 319.5,826.5 272.5,802.4 433.4,626.2 	"/>
	<path class="st7" d="M377.4,843.1l-57.6-17l-46.4-23.9L432.5,628L377.4,843.1 M378.1,844.3l56.3-219.9L271.7,802.5l47.7,24.5
		L378.1,844.3L378.1,844.3z"/>
</g>
<g>
	<polygon class="st2" points="433.3,624.9 272.1,801.3 253.8,614 	"/>
	<path class="st2" d="M272.5,800.2l-18.1-185.7l177.8,10.8L272.5,800.2 M271.7,802.5l162.7-178.1l-181.1-11L271.7,802.5L271.7,802.5
		z"/>
</g>
<g>
	<polygon class="st6" points="1840.6,909.2 1774.6,1017.1 1737.1,1075.2 1699.7,965.8 1781.1,730.4 	"/>
	<path class="st6" d="M1737.3,1074l-37-108.2l80.8-233.9l58.9,177.3l-65.8,107.7L1737.3,1074 M1737,1076.3l38-58.9l66.1-108.1
		l-60-180.5l-81.9,237L1737,1076.3L1737,1076.3z"/>
</g>
<g>
	<path class="st8" d="M339.5,0.6l-2.1,4.6l-83,22.1L156.5,58c-0.1,0-0.1,0-0.2,0.1L0.5,180.4l0-179.8L339.5,0.6L339.5,0.6z"/>
	<path class="st8" d="M1.1,179.3v-30.6V33.5v-6.6V1.1h50.7h31.9h29h54.6h96l69.1,0h6.3L337,4.8l-82.8,22.1l-97.9,30.7
		c-0.1,0-0.2,0.1-0.3,0.2L1.1,179.3 M0.1,181.3L156.7,58.4l97.9-30.7l83.2-22.2l2.5-5.5l-7.9,0l-69.1,0l-96,0l-54.6,0l-29,0L51.8,0
		L0.1,0l0,26.8v6.6l0,115.2L0.1,181.3L0.1,181.3z"/>
</g>
<g>
	<polygon class="st4" points="578.3,654.7 538.4,662 435.3,624.2 611,468.6 	"/>
	<path class="st4" d="M538.5,661.5l-102.2-37.4l174-154.2l-32.4,184.4L538.5,661.5 M538.4,662.5l40.4-7.4l33-187.9L434.4,624.4
		L538.4,662.5L538.4,662.5z"/>
</g>
<g>
	<polygon class="st9" points="919.1,664.3 744.9,642.6 858.7,525.9 	"/>
	<path class="st9" d="M918.3,663.7L746,642.2l112.6-115.4L918.3,663.7 M920,664.9L858.9,525l-115,117.9L920,664.9L920,664.9z"/>
</g>
<g>
	<polygon class="st5" points="756.5,941.1 716.9,957.9 626.1,961.6 692.5,858.6 	"/>
	<path class="st5" d="M627.1,961l65.5-101.6l63.1,81.5l-38.9,16.5L627.1,961 M625.2,962.1l91.8-3.7l40.3-17.1l-64.8-83.6
		L625.2,962.1L625.2,962.1z"/>
</g>
<g>
	<path class="st0" d="M537.8,662.8l-35.4,198.5c0,0.2,0,0.4,0.2,0.5l121.3,99.8l-56,1.2h-0.1l-86.7,19.6L378.7,844.2l56.1-219.1
		L537.8,662.8z"/>
	<path class="st0" d="M481.2,981.9l-102-137.8l55.9-218.4l102.2,37.4l-35.4,198.1c-0.1,0.4,0.1,0.7,0.3,0.9l120.2,99l-54.7,1.1
		c-0.1,0-0.1,0-0.2,0L481.2,981.9 M480.8,983l87-19.7l57.4-1.2L502.9,861.4l35.5-198.9l-104-38.1l-56.3,219.9L480.8,983L480.8,983z"
		/>
</g>
<g>
	<polygon class="st9" points="279.7,109.9 166.2,269.2 0.6,357.2 0.6,181.6 156.9,58.9 254.3,28.4 	"/>
	<path class="st9" d="M1.1,356.4V218.8v-36.9L157.2,59.4L254,29.1l25.3,80.8l-113.4,159L1.1,356.4 M0.1,358l166.4-88.5L280.3,110
		l-25.7-82.2l-97.9,30.7L0.1,181.4v37.4L0.1,358L0.1,358z"/>
</g>
<g>
	<polygon class="st1" points="809,1079.5 378.7,1079.5 471.2,1038.8 714.4,1013 	"/>
	<path class="st1" d="M381,1079l90.3-39.7l243-25.7l93.1,65.4h-72.3H599.3H381 M376.3,1080h223h135.8h75.5l-96-67.5l-243.5,25.8
		L376.3,1080L376.3,1080z"/>
</g>
<g>
	<path class="st6" d="M714.3,1012l-240.5,25.5l151.5-74.9l91.7-3.7c0.1,0,0.1,0,0.2,0l38.9-16.5L714.3,1012z"/>
	<path class="st6" d="M476.5,1036.7l148.9-73.6l91.6-3.7c0.1,0,0.2,0,0.4-0.1l37.5-15.9l-40.9,68.1L476.5,1036.7 M471.1,1038.3
		l243.5-25.8l42.7-71.2L717,958.4l-91.8,3.7L471.1,1038.3L471.1,1038.3z"/>
</g>
<g>
	<polygon class="st1" points="471.7,1037.4 481.2,983.4 567.8,963.8 622.9,962.7 	"/>
	<path class="st1" d="M472.4,1036.5l9.2-52.7l86.2-19.5l52.8-1.1L472.4,1036.5 M471.1,1038.3l154.1-76.2l-57.4,1.2l-87,19.7
		L471.1,1038.3L471.1,1038.3z"/>
</g>
<g>
	<path class="st7" d="M312.8,910.7c0,0.1,0.1,0.2,0.3,0.3l167.1,72.3l-9.6,54.6l-94.5,41.5h-70l-92.7-154.3l58.2-121.4L312.8,910.7z
		"/>
	<path class="st7" d="M306.4,1079L214,925.2L271.6,805l40.8,105.8c0.1,0.3,0.3,0.5,0.5,0.6l166.8,72.2l-9.5,54l-94.1,41.4h-56.4
		H306.4 M305.9,1080h13.8h56.6l94.8-41.7l9.7-55.3l-167.5-72.5l-41.6-108l-58.8,122.7L305.9,1080L305.9,1080z"/>
</g>
<g>
	<path class="st7" d="M190.4,768l-91,79.2l-36.3-78c-0.1-0.1-0.2-0.3-0.4-0.3L0.6,758.2v-41.4l88.8-145.3L190.4,768z"/>
	<path class="st7" d="M99.5,846.4l-36-77.4c-0.1-0.3-0.4-0.5-0.7-0.6L1.1,757.7v-40.9l88.2-144.4l100.4,195.4L99.5,846.4 M99.2,848
		l91.8-79.9L89.4,570.4L0.1,716.6l0,42l62.5,10.8L99.2,848L99.2,848z"/>
</g>
<g>
	<polygon class="st5" points="46.3,811.4 69.9,871.1 26.2,840.2 0.6,819.8 0.6,774.6 	"/>
	<path class="st5" d="M68.8,869.8l-42.3-29.9L1.1,819.6v-24.1v-19.8l44.8,36.1L68.8,869.8 M71,872.5l-24.3-61.4L0.1,773.5v21.9V820
		l25.8,20.6L71,872.5L71,872.5z"/>
</g>
<g>
	<polygon class="st1" points="691.9,857.7 625.1,961.4 503.7,861.5 642.1,775 	"/>
	<path class="st1" d="M624.9,960.6l-120.4-99.1l137.4-85.8l49.4,82L624.9,960.6 M625.2,962.1l67.3-104.4l-50.2-83.4l-139.4,87.1
		L625.2,962.1L625.2,962.1z"/>
</g>
<g>
	<polygon class="st7" points="641.6,774.1 503.6,860.4 538.8,663 578.5,655.7 	"/>
	<path class="st7" d="M504.3,859.4l35-196l39-7.1L640.9,774L504.3,859.4 M502.9,861.4l139.4-87.1l-63.5-119.2l-40.4,7.4L502.9,861.4
		L502.9,861.4z"/>
</g>
<g>
	<polygon class="st5" points="1588.4,547 1522,591.8 1468.5,507.8 1519.3,415.6 	"/>
	<path class="st5" d="M1522.1,591.1l-53-83.3l50.2-91.1l68.4,130.2L1522.1,591.1 M1521.8,592.5l67.2-45.4l-69.7-132.6l-51.4,93.3
		L1521.8,592.5L1521.8,592.5z"/>
</g>
<g>
	<polygon class="st0" points="1518.8,414.5 1467.8,507.1 1339,402.2 1482.3,225.3 	"/>
	<path class="st0" d="M1467.6,506.3l-127.9-104.2L1482,226.4l36.2,187.9L1467.6,506.3 M1467.9,507.8l51.4-93.3l-36.7-190.4
		l-144.3,178.1L1467.9,507.8L1467.9,507.8z"/>
</g>
<g>
	<path class="st1" d="M1521.2,592.5l-68.3,89.4c-0.1,0.1-0.1,0.2-0.1,0.2l-13.2,121.2l-110.4-210.6l138.6-84.2L1521.2,592.5z"/>
	<path class="st1" d="M1439.3,801.6l-109.4-208.8l137.8-83.7l53,83.3l-68.1,89.1c-0.1,0.1-0.2,0.3-0.2,0.5L1439.3,801.6 M1439.9,805
		l13.4-122.8l68.5-89.7l-53.9-84.7l-139.4,84.7L1439.9,805L1439.9,805z"/>
</g>
<g>
	<path class="st0" d="M1746.4,713.8l-156.3,82l-149.1,8.6l93.3-123.1l114.8-14.8c0.1,0,0.1,0,0.2-0.1l121.3-69.3L1746.4,713.8z"/>
	<path class="st0" d="M1442,803.9l92.5-122l114.6-14.7c0.1,0,0.3-0.1,0.4-0.1l120.4-68.8l-24,115.3l-156,81.9L1442,803.9
		 M1439.9,805l150.3-8.7l156.6-82.2l24.5-117.9L1649,666.1l-115,14.8L1439.9,805L1439.9,805z"/>
</g>
<g>
	<path class="st7" d="M1491,879.5l-137.7,59.3l82.2-109c0-0.1,0.1-0.1,0.1-0.2l4.8-24.1l148.4-8.6L1491,879.5z"/>
	<path class="st7" d="M1354.8,937.6l81-107.5c0.1-0.1,0.2-0.3,0.2-0.4l4.7-23.7l146.5-8.5l-96.6,81.6L1354.8,937.6 M1351.7,940
		l139.5-60.1l99-83.6l-150.3,8.7l-4.9,24.5L1351.7,940L1351.7,940z"/>
</g>
<g>
	<polygon class="st4" points="1013.2,412.8 865.5,409.1 874,242.7 	"/>
	<path class="st4" d="M1012.1,412.3L866,408.7l8.4-164.7L1012.1,412.3 M1014.2,413.3l-140.7-172l-8.6,168.3L1014.2,413.3
		L1014.2,413.3z"/>
</g>
<g>
	<path class="st9" d="M1078.4,517.7l-31.7,67.3c0,0.1,0,0.1,0,0.2l-2.4,92.9l-123.7-13.5L945,515.5l69.3-101.2L1078.4,517.7z"/>
	<path class="st9" d="M1043.8,677.4L921.1,664l24.3-148.4l68.8-100.4l63.6,102.5l-31.6,67c-0.1,0.1-0.1,0.3-0.1,0.4L1043.8,677.4
		 M1044.7,678.5l2.4-93.4l31.8-67.5l-64.7-104.3l-69.8,101.9l-24.5,149.7L1044.7,678.5L1044.7,678.5z"/>
</g>
<g>
	<path class="st8" d="M1013.3,413.8L944,514.9c0,0.1-0.1,0.1-0.1,0.2l-24.2,148l-60.4-138.2l6.1-114.8L1013.3,413.8z"/>
	<path class="st8" d="M919.5,661.4l-59.6-136.6l6-114.2l146.5,3.6l-68.8,100.4c-0.1,0.1-0.1,0.3-0.2,0.4L919.5,661.4 M920,664.9
		l24.5-149.7l69.8-101.9L865,409.6L858.9,525L920,664.9L920,664.9z"/>
</g>
<g>
	<polygon class="st4" points="88.8,570.5 0.6,714.8 0.6,456.9 	"/>
	<path class="st4" d="M1.1,713.1v-138V458.4l87.1,112.1L1.1,713.1 M0.1,716.6l89.3-146.2l-89.3-115l0,119.6L0.1,716.6L0.1,716.6z"/>
</g>
<g>
	<polygon class="st1" points="1699,964.9 1598.4,878.6 1780.1,730.3 	"/>
	<path class="st1" d="M1698.7,964.1l-99.6-85.5L1779,731.8L1698.7,964.1 M1699.2,965.8l81.9-237l-183.5,149.8L1699.2,965.8
		L1699.2,965.8z"/>
</g>
<g>
	<polygon class="st5" points="1780.7,728.5 1597.4,878.1 1492.6,879.4 1590.5,796.7 1747,714.6 1813.8,689.5 	"/>
	<path class="st5" d="M1494,878.9l96.8-81.7l156.4-82.2l64.9-24.4l-31.8,37.5l-183.1,149.5L1494,878.9 M1491.2,879.9l106.4-1.3
		l183.5-149.8l34.3-40.5l-68.6,25.8l-156.6,82.2L1491.2,879.9L1491.2,879.9z"/>
</g>
<g>
	<polygon class="st0" points="212.6,925.7 305,1079.5 110.4,1079.5 86.2,1058.9 99.6,906.3 	"/>
	<path class="st0" d="M110.6,1079l-23.8-20.3l13.4-151.8l112.2,19.2l91.7,152.9h-111H110.6 M110.2,1080h82.9h112.8l-93-154.8
		L99.2,905.7l-13.5,153.4L110.2,1080L110.2,1080z"/>
</g>
<g>
	<polygon class="st5" points="193.2,906.1 211.4,924.5 101.9,905.7 171.3,891.4 	"/>
	<path class="st5" d="M210,923.7l-105.4-18.1l66.6-13.6l21.7,14.5L210,923.7 M212.9,925.2l-19.4-19.5l-22.1-14.8l-72.2,14.8
		L212.9,925.2L212.9,925.2z"/>
</g>
<g>
	<polygon class="st1" points="168.8,890.9 99.4,905.2 72.3,873.3 	"/>
	<path class="st1" d="M99.6,904.6l-26-30.6l92.6,17L99.6,904.6 M99.2,905.7l72.2-14.8L71,872.5L99.2,905.7L99.2,905.7z"/>
</g>
<g>
	<path class="st5" d="M85.2,1058.8l-40.1,20.7H0.6v-41.4l11.8-0.6c0.2,0,0.3-0.1,0.4-0.2l85.7-129.6L85.2,1058.8z"/>
	<path class="st5" d="M1.1,1079v-30v-10.4l11.3-0.6c0.3,0,0.6-0.2,0.8-0.4l84.6-128l-13.1,148.9L45,1079H1.1 M0.1,1080h45.1
		l40.5-20.9l13.5-153.4L12.4,1037l-12.3,0.6v11.4L0.1,1080L0.1,1080z"/>
</g>
<g>
	<polygon class="st6" points="25.5,841 70.7,872.9 96.5,903.4 28.5,858.5 0.5,832 0.6,821 	"/>
	<path class="st6" d="M93.9,901l-65.1-42.9L1,831.8l0.1-9.7l24.1,19.3l0,0l44.9,31.8l0.2,0.1L93.9,901 M99.2,905.7L71,872.5
		l-0.3-0.2l-44.9-31.8L0.1,820L0,832.2l28.2,26.7L99.2,905.7L99.2,905.7z"/>
</g>
<g>
	<polygon class="st0" points="98.5,905.9 12.1,1036.5 0.6,1037.1 0.6,884.7 28.3,859.5 	"/>
	<path class="st0" d="M1.1,1036.6V885l27.3-24.8L97.8,906l-86,130L1.1,1036.6 M0.1,1037.6l12.3-0.6l86.8-131.3l-70.9-46.8L0.1,884.5
		L0.1,1037.6L0.1,1037.6z"/>
</g>
<g>
	<polygon class="st5" points="842.5,998.9 826.1,1079.5 810.7,1079.5 715.2,1012.4 757.6,941.7 863.1,874.7 	"/>
	<path class="st5" d="M810.9,1079l-95-66.8L758,942l104.4-66.3L842,998.8l-16.3,80.2H810.9 M810.6,1080h16l16.4-81l20.8-125.3
		l-106.5,67.6l-42.7,71.2L810.6,1080L810.6,1080z"/>
</g>
<g>
	<polygon class="st9" points="566.8,106.2 415.6,198.6 456.8,31 	"/>
	<path class="st9" d="M416.3,197.5l40.8-165.7l108.8,74.4L416.3,197.5 M414.8,199.6l153-93.4L456.5,30.1L414.8,199.6L414.8,199.6z"
		/>
</g>
<g>
	<polygon class="st4" points="455.9,30.5 414.5,198.8 280.7,109.6 255.2,28.1 337.8,6.1 	"/>
	<path class="st4" d="M414.1,198l-133-88.7l-25.3-80.9l82-21.9l117.4,24.3L414.1,198 M414.8,199.6l41.7-169.5L337.8,5.5l-83.2,22.2
		l25.7,82.2L414.8,199.6L414.8,199.6z"/>
</g>
<g>
	<polygon class="st7" points="1177.3,805 1040.4,912 1045.2,679.7 	"/>
	<path class="st7" d="M1040.9,910.9l4.8-230.1l130.8,124.1L1040.9,910.9 M1039.8,913L1178,805l-133.3-126.5L1039.8,913L1039.8,913z"
		/>
</g>
<g>
	<path class="st0" d="M1350.3,939.5l-157.6,4.9c-0.1,0-0.2,0-0.3,0.1l-127.1,82.1c0,0-112.3-3.6-112.4-3.6c-0.1,0-0.2,0-0.2,0.1
		l-109.3,56.4H827l16.3-80.4L864,874.3l175.6,39.2h0.1c0.1,0,0.2,0,0.3-0.1l138-107.8L1350.3,939.5z"/>
	<path class="st0" d="M827.8,1079l16.2-79.8l20.6-124.3l175,39.1c0.1,0,0.1,0,0.2,0c0.2,0,0.4-0.1,0.6-0.2L1178,806.3l170.9,132.8
		l-156.2,4.8c-0.2,0-0.4,0.1-0.5,0.2l-126.9,82l-112.2-3.6l0,0c-0.2,0-0.3,0-0.5,0.1L843.4,1079H827.8 M826.6,1080h17.1l109.4-56.5
		l112.5,3.6l127.2-82.2l159-4.9L1178,805l-138.2,108l-176.1-39.3L843,999L826.6,1080L826.6,1080z"/>
</g>
<g>
	<polygon class="st3" points="1792.4,254.5 1658.4,134.6 1738,83.8 	"/>
	<path class="st3" d="M1791.3,253l-132.1-118.3l78.5-50.1L1791.3,253 M1793.4,256.1L1738.3,83l-80.7,51.5L1793.4,256.1L1793.4,256.1
		z"/>
</g>
<g>
	<polygon class="st0" points="1792.6,256.1 1683.3,346.4 1483.7,224.2 1613.7,163.2 1657.6,135.2 	"/>
	<path class="st0" d="M1683.2,345.8l-198.5-121.6l129.2-60.6c0,0,0.1,0,0.1-0.1l43.5-27.8l134.4,120.4L1683.2,345.8 M1683.3,347
		l110.1-90.9l-135.8-121.6l-44.1,28.2l-130.9,61.4L1683.3,347L1683.3,347z"/>
</g>
<g>
	<path class="st1" d="M1824.7,116.1c0,0.2,0.1,0.3,0.2,0.4l68.3,57.7l26.3,36.2v70.9l-125.7-25.6l-54.9-172.5l91.9-76.5
		L1824.7,116.1z"/>
	<path class="st1" d="M1919,280.7l-124.8-25.4l-54.7-171.9l90.7-75.6l-6,108.3c0,0.3,0.1,0.6,0.4,0.8l68.3,57.6l26.1,36.1V280.7
		 M1920,281.9v-71.7l-26.4-36.4l-68.4-57.7l6.1-110.6l-93,77.5l55.1,173.1L1920,281.9L1920,281.9z"/>
</g>
<g>
	<polygon class="st0" points="1919.5,696.4 1919,696.4 1919.5,695.6 	"/>
	<polygon class="st0" points="1918.1,696.9 1920,696.9 1920,693.9 	"/>
</g>
<g>
	<polygon class="st0" points="1919.5,697.4 1919.5,706.5 1918.6,697.4 	"/>
	<polygon class="st0" points="1920,717.2 1920,696.9 1918.1,696.9 	"/>
</g>
<g>
	<polygon class="st1" points="1919.5,717.3 1919.5,897.7 1841.4,908.8 1781.8,729.2 1917.7,697.5 	"/>
	<path class="st1" d="M1841.8,908.2l-59.4-178.7l134.8-31.3l1.8,19.1v180L1841.8,908.2 M1841.1,909.3l78.9-11.2V717.2l-1.9-20.3
		l-137,31.9L1841.1,909.3L1841.1,909.3z"/>
</g>
<g>
	<polygon class="st3" points="1262.3,993.6 1168.2,1039 1067,1026.8 1192.9,945.4 1349.8,940.6 	"/>
	<path class="st3" d="M1168.1,1038.5l-99.7-12l124.6-80.6l155-4.8l-85.9,52L1168.1,1038.5 M1168.2,1039.5l94.3-45.5l89.2-54
		l-159,4.9l-127.2,82.2L1168.2,1039.5L1168.2,1039.5z"/>
</g>
<g>
	<path class="st5" d="M1193.2,1079.5h-211l83.5-51.9l102.5,12.4c0,0,0,0,0.1,0s0.1,0,0.2,0l92.3-44.5L1193.2,1079.5z"/>
	<path class="st5" d="M984,1079l81.8-50.9l102.3,12.4h0.1c0.2,0,0.3,0,0.4-0.1l90.4-43.6l-66,82.2h-28.3h-45.1H984 M980.4,1080
		h139.1h45.1h28.8l69.1-86l-94.3,45.5l-102.7-12.4L980.4,1080L980.4,1080z"/>
</g>
<g>
	<polygon class="st6" points="1373.6,1063.1 1403.9,1079.5 1194.5,1079.5 1262.6,994.7 	"/>
	<path class="st6" d="M1195.5,1079l67.2-83.7l110.6,68.3l0,0l28.6,15.4h-29.2H1320H1195.5 M1193.4,1080h126.5h52.7h33.2l-32-17.3
		L1262.5,994L1193.4,1080L1193.4,1080z"/>
</g>
<g>
	<path class="st1" d="M1444.3,1001.2c0,0.1,0,0.3,0,0.4l38,77.9H1406l-31.9-17.2L1263.5,994l88.5-53.6l138.3-59.6L1444.3,1001.2z"/>
	<path class="st1" d="M1406.1,1079l-31.8-17.2L1264.5,994l87.7-53.1l137.3-59.1l-45.7,119.2c-0.1,0.3-0.1,0.5,0,0.8l37.7,77.2
		H1406.1 M1405.8,1080h77.3l-38.4-78.6l46.5-121.5L1351.7,940l-89.2,54l111.3,68.7L1405.8,1080L1405.8,1080z"/>
</g>
<g>
	<path class="st2" d="M919.9,665.4l124.3,13.6l-4.9,232.5L910.5,723.7c-0.1-0.1-0.3-0.2-0.4-0.2c-0.1,0-0.2,0-0.2,0.1l-110,62.5
		l-157.4-12.2l-63-118.3l164.3-12.1L919.9,665.4z"/>
	<path class="st2" d="M1038.9,909.9L911,723.4c-0.2-0.3-0.5-0.4-0.8-0.4c-0.2,0-0.3,0-0.5,0.1l-109.8,62.4L643,773.4L580.5,656
		L744,643.9l176,22l123.9,13.5L1038.9,909.9 M1039.8,913l4.9-234.5l-124.8-13.6l-176.1-22l-165.1,12.2l63.5,119.2L800,786.5
		l110.1-62.6L1039.8,913L1039.8,913z"/>
</g>
<g>
	<path class="st7" d="M1038.7,912.2l-174.9-39h-0.1c-0.1,0-0.2,0-0.3,0.1l-106.1,67.4l-64.5-83.2L643.1,775L800,787.1
		c0.1,0,0.2,0,0.2-0.1L910,724.6L1038.7,912.2z"/>
	<path class="st7" d="M757.5,940l-64.2-82.8l-49.2-81.7l155.9,12h0.1c0.2,0,0.3,0,0.5-0.1l109.3-62.1l127.7,186.2L864,872.8
		c-0.1,0-0.1,0-0.2,0c-0.2,0-0.4,0.1-0.5,0.2L757.5,940 M757.3,941.3l106.5-67.6l176,39.3L910.1,723.9L800,786.5l-157.8-12.2
		l50.2,83.4L757.3,941.3L757.3,941.3z"/>
</g>
<g>
	<path class="st9" d="M278.9,477.6L278.9,477.6h0.2l123-20.8l31.6,167.1L253.5,613L146.7,436.3L278.9,477.6z"/>
	<path class="st9" d="M433.2,623.3l-179.3-10.9L147.9,437l130.9,41c0.1,0,0.2,0,0.3,0c0.1,0,0.1,0,0.2,0l122.5-20.7L433.2,623.3
		 M434.4,624.4l-31.8-168.2l-123.5,20.9l-133.4-41.8l107.6,178.1L434.4,624.4L434.4,624.4z"/>
</g>
<g>
	<polygon class="st4" points="252.7,613.5 190.9,766.9 89.9,570.4 145.8,436.4 	"/>
	<path class="st4" d="M190.9,765.7L90.5,570.4l55.4-132.8l106.3,176L190.9,765.7 M191,768.1l62.3-154.7L145.7,435.3L89.4,570.4
		L191,768.1L191,768.1z"/>
</g>
<g>
	<polygon class="st9" points="145.1,435.6 89.3,569.4 0.6,455.3 0.6,358.9 	"/>
	<path class="st9" d="M89.1,568.5l-88-113.4v-44.7v-50.7l143.3,76.1L89.1,568.5 M89.4,570.4l56.3-135.1L0.1,358v52.4l0,45
		L89.4,570.4L89.4,570.4z"/>
</g>
<g>
	<polygon class="st0" points="401.4,455.9 279.1,476.6 147.1,435.3 297.3,372 	"/>
	<path class="st0" d="M279.2,476.1l-130.6-40.9l148.6-62.6l103,83L279.2,476.1 M279.1,477.1l123.5-20.9l-105.2-84.8l-151.7,63.9
		L279.1,477.1L279.1,477.1z"/>
</g>
<g>
	<path class="st8" d="M414.1,199.8l-117,171.3l-151.3,63.7L1.2,358.1L166.7,270c0.1,0,0.1-0.1,0.2-0.2l113.5-159.2L414.1,199.8z"/>
	<path class="st8" d="M145.7,434.2L2.2,358L167,270.4c0.1-0.1,0.3-0.2,0.3-0.3l113.2-158.8l132.8,88.6L296.6,370.6L145.7,434.2
		 M145.7,435.3l151.7-63.9l117.4-171.8l-134.5-89.7L166.5,269.5L0.1,358L145.7,435.3L145.7,435.3z"/>
</g>
<g>
	<polygon class="st4" points="1066.6,0.6 896.5,109.5 743.1,158.9 877.5,61.3 1039.2,0.6 	"/>
	<path class="st4" d="M745.9,157.5l131.8-95.7l161.6-60.7h25.6l-168.6,108L745.9,157.5 M740.3,160.3L896.8,110L1068.4,0.1h-29.2
		L877.3,60.9L740.3,160.3L740.3,160.3z"/>
</g>
<g>
	<polygon class="st2" points="915.7,156.6 873.4,240.6 741.5,160.5 896.5,110.6 	"/>
	<path class="st2" d="M873.1,239.9l-130.5-79.3l153.5-49.4l19,45.4L873.1,239.9 M873.6,241.3l42.7-84.7l-19.5-46.7l-156.5,50.4
		L873.6,241.3L873.6,241.3z"/>
</g>
<g>
	<polygon class="st7" points="873,241.6 864.5,408.6 754.1,320.9 740.8,161.3 	"/>
	<path class="st7" d="M864.1,407.6l-109.4-87l-13.2-158.4l131.1,79.7L864.1,407.6 M865,409.6l8.6-168.3l-133.3-81l13.4,160.8
		L865,409.6L865,409.6z"/>
</g>
<g>
	<path class="st2" d="M753.2,321.2c0,0.1,0.1,0.3,0.2,0.4l111.1,88.3l-6.1,114.7l-174.5,3.6c-0.1,0-0.3,0.1-0.4,0.2l-103.9,125
		l32.7-185.9l54.9-79.6c0.1-0.1,0.1-0.3,0.1-0.4l-26.8-128.7l99.4-97.3L753.2,321.2z"/>
	<path class="st2" d="M580.4,651.6l32.3-184l54.9-79.5c0.2-0.2,0.2-0.5,0.2-0.8L641,258.8l98.5-96.3l13.2,158.7
		c0,0.3,0.2,0.5,0.4,0.7L864,410.1l-6,114l-174.1,3.6c-0.3,0-0.6,0.1-0.7,0.4L580.4,651.6 M578.8,655.1l105.1-126.5l175-3.6
		l6.1-115.4l-111.3-88.5l-13.4-160.8l-100.4,98.2l26.9,129l-55,79.7L578.8,655.1L578.8,655.1z"/>
</g>
<g>
	<polygon class="st9" points="761.5,0.6 740,158.5 671.9,0.6 	"/>
	<path class="st9" d="M739.8,156.6L672.7,1h48.8H761L739.8,156.6 M740.3,160.3L762.1,0l-40.6,0l-50.3,0L740.3,160.3L740.3,160.3z"/>
</g>
<g>
	<polygon class="st7" points="670.8,0.6 739.4,159.5 568,105.8 457.3,30.1 496.6,0.6 	"/>
	<path class="st7" d="M738.5,158.7l-170.3-53.4l-110-75.2L496.8,1h85.6h55.8h32.3L738.5,158.7 M740.3,160.3L671.2,0l-33,0l-55.8,0
		l-85.9,0l-40,30.1l111.3,76.1L740.3,160.3L740.3,160.3z"/>
</g>
<g>
	<path class="st7" d="M1048.3,186l-173.8,54.5l42.2-83.6c0.1-0.1,0.1-0.3,0-0.4l-19-45.5L1048.3,186z"/>
	<path class="st7" d="M875.5,239.7l41.6-82.6c0.1-0.3,0.1-0.6,0-0.8l-18.5-44.2l148.4,73.8L875.5,239.7 M873.6,241.3l176.1-55.2
		l-152.9-76.2l19.5,46.7L873.6,241.3L873.6,241.3z"/>
</g>
<g>
	<path class="st7" d="M1127.9,0.6l113.4,161.2c0.1,0.1,0.2,0.2,0.3,0.2l239.5,62.2l-211.2,93.9l-97.7-99.2c-0.1-0.1-0.1-0.1-0.2-0.1
		l-121.8-33l52.3-185.2L1127.9,0.6L1127.9,0.6z"/>
	<path class="st7" d="M1270.1,317.5l-97.4-99c-0.1-0.1-0.3-0.2-0.5-0.3l-121.3-32.8l52-184.4h24.7l113.3,161.1
		c0.1,0.2,0.3,0.3,0.6,0.4l238.1,61.9L1270.1,317.5 M1269.8,318.7l212.8-94.6l-240.9-62.6L1128.1,0l-26,0l-52.5,186.1l122.3,33.1
		L1269.8,318.7L1269.8,318.7z"/>
</g>
<g>
	<polygon class="st2" points="1101.5,0.6 1049.3,185.4 897.8,109.9 1068.5,0.6 	"/>
	<path class="st2" d="M1049,184.7l-150.2-74.9L1068.7,1h32.2L1049,184.7 M1049.6,186.1L1102.1,0l-33.8,0L896.8,110L1049.6,186.1
		L1049.6,186.1z"/>
</g>
<g>
	<polygon class="st2" points="1171.6,219.7 1239.7,396.9 1014.5,412.8 874.4,241.6 1049.7,186.7 	"/>
	<path class="st2" d="M1014.7,412.3L875.3,241.9l174.4-54.7l121.5,32.9l67.8,176.3L1014.7,412.3 M1014.2,413.3l226.2-16l-68.5-178.1
		l-122.3-33.1l-176.1,55.2L1014.2,413.3L1014.2,413.3z"/>
</g>
<g>
	<polygon class="st3" points="1467.1,507.8 1328.9,591.7 1303.5,457.5 1338.4,403 	"/>
	<path class="st3" d="M1329.2,590.9L1304,457.6l34.6-53.9l127.6,104L1329.2,590.9 M1328.5,592.5l139.4-84.7l-129.6-105.6l-35.4,55.2
		L1328.5,592.5L1328.5,592.5z"/>
</g>
<g>
	<polygon class="st0" points="1337.4,402.7 1302.5,457.1 1180.5,578.4 1079.3,517.3 1015.1,413.8 1240.4,397.8 	"/>
	<path class="st0" d="M1180.4,577.8l-100.7-60.9L1016,414.2l224.5-15.9l96.1,4.8l-34.4,53.7L1180.4,577.8 M1180.5,579l122.4-121.6
		l35.4-55.2l-97.9-4.9l-226.2,16l64.7,104.3L1180.5,579L1180.5,579z"/>
</g>
<g>
	<polygon class="st3" points="1919.5,282.3 1919.5,327.4 1781.1,404.1 1684.2,347 1793.5,256.7 	"/>
	<path class="st3" d="M1781.1,403.5l-96.1-56.6l108.6-89.7l125.4,25.6v44.4L1781.1,403.5 M1781.1,404.6l138.9-76.9v-45.8
		l-126.6-25.8L1683.3,347L1781.1,404.6L1781.1,404.6z"/>
</g>
<g>
	<polygon class="st3" points="1867.2,457.6 1771,595.8 1650.2,664.9 1693.6,576.8 1781.3,405.3 	"/>
	<path class="st3" d="M1651.4,663.6l42.6-86.5l87.5-171l85,51.7l-95.9,137.7L1651.4,663.6 M1649,666.1l122.3-69.9l96.6-138.8
		l-86.8-52.8l-88,172L1649,666.1L1649,666.1z"/>
</g>
<g>
	<polygon class="st0" points="1692.9,576 1589.4,546.7 1520.2,415.1 1606.2,422.3 1780.2,405.2 	"/>
	<path class="st0" d="M1692.6,575.4l-102.9-29.2l-68.6-130.6l85.1,7.1h0.1h0.1l173.1-17L1692.6,575.4 M1693.1,576.6l88-172
		l-174.9,17.2l-86.9-7.3l69.7,132.6L1693.1,576.6L1693.1,576.6z"/>
</g>
<g>
	<polygon class="st1" points="1779.5,404.3 1607.6,421.2 1683.4,347.7 	"/>
	<path class="st1" d="M1609,420.6l74.5-72.3l94.5,55.6L1609,420.6 M1606.2,421.8l174.9-17.2l-97.8-57.6L1606.2,421.8L1606.2,421.8z"
		/>
</g>
<g>
	<polygon class="st6" points="1919.5,693.8 1917.8,696.5 1782.5,728 1815.8,688.6 1896.4,549.9 1919.5,541.3 	"/>
	<path class="st6" d="M1783.8,727.2l32.4-38.2l0.1-0.1l80.5-138.6l22.2-8.3v25.9v125.7l-1.5,2.4L1783.8,727.2 M1781.1,728.8
		l137-31.9l1.9-3V567.8v-27.3l-23.9,9l-80.7,138.8L1781.1,728.8L1781.1,728.8z"/>
</g>
<g>
	<path class="st1" d="M1919.5,540.2l-23.6,8.9c-0.1,0-0.2,0.1-0.3,0.2L1815,687.9l-67.6,25.4l24.3-116.9l96.6-138.7
		c0.1-0.1,0.1-0.3,0.1-0.4s-0.1-0.3-0.2-0.3l-86.1-52.4l137.4-76V540.2z"/>
	<path class="st1" d="M1748.2,712.5l24.1-115.9l96.4-138.6c0.2-0.2,0.2-0.5,0.2-0.8c-0.1-0.3-0.2-0.5-0.5-0.6l-85.3-51.9l135.9-75.3
		V382v43.7v53.6v60.5l-23.3,8.8c-0.2,0.1-0.4,0.2-0.5,0.4l-80.5,138.5L1748.2,712.5 M1746.8,714.1l68.6-25.8l80.7-138.8l23.9-9
		v-61.2v-53.6V382v-54.3l-138.9,76.9l86.8,52.8l-96.6,138.8L1746.8,714.1L1746.8,714.1z"/>
</g>
<g>
	<polygon class="st6" points="1919.5,208.7 1894.2,173.9 1919.5,140.1 	"/>
	<path class="st6" d="M1919,207.2l-24.2-33.3l24.2-32.3v25.6v21V207.2 M1920,210.2v-22v-21v-28.6l-26.4,35.2L1920,210.2L1920,210.2z
		"/>
</g>
<g>
	<polygon class="st5" points="1919.5,0.6 1919.5,138.5 1893.5,173.1 1825.7,115.9 1831.8,5.8 1839.1,0.6 	"/>
	<path class="st5" d="M1893.4,172.4l-67.2-56.7l6-109.6l7-5h79.8v33.3v44.8v59.2L1893.4,172.4 M1893.6,173.8l26.4-35.2V79.1V34.3V0
		l-81.1,0l-7.6,5.5l-6.1,110.6L1893.6,173.8L1893.6,173.8z"/>
</g>
<g>
	<polygon class="st6" points="1837.4,0.6 1831,5.2 1738.5,82.3 1697.4,0.6 	"/>
	<path class="st6" d="M1738.6,81.5l-40.4-80.4H1812h13.7h10.1l-5.1,3.7c0,0,0,0-0.1,0L1738.6,81.5 M1738.3,83.1l93-77.5l7.6-5.5
		l-13.2,0H1812l-115.4,0L1738.3,83.1L1738.3,83.1z"/>
</g>
<g>
	<polygon class="st5" points="1696.3,0.6 1737.7,82.9 1657.7,133.9 1537.3,0.6 	"/>
	<path class="st5" d="M1657.8,133.3L1538.5,1.1l134.3,0h23.2l41,81.6L1657.8,133.3 M1657.6,134.5l80.7-51.5l-41.7-83l-23.8,0
		l-136.6,0L1657.6,134.5L1657.6,134.5z"/>
</g>
<g>
	<polygon class="st7" points="611.4,466.9 434.7,623.5 403.1,456.5 567.9,392.9 665.8,388.1 	"/>
	<path class="st7" d="M435,622.5l-31.3-165.6L568,393.4l96.8-4.8L611,466.5L435,622.5 M434.4,624.4l177.4-157.2l55-79.7l-99,4.9
		l-165.2,63.8L434.4,624.4L434.4,624.4z"/>
</g>
<g>
	<polygon class="st9" points="527,320.2 567.1,392.2 402.7,455.7 298.1,371.3 414.8,200.4 	"/>
	<path class="st9" d="M402.8,455.1l-104-83.9l116.2-170l111.7,119.3l39.8,71.4L402.8,455.1 M402.6,456.2l165.2-63.8l-40.4-72.5
		L414.8,199.6L297.4,371.4L402.6,456.2L402.6,456.2z"/>
</g>
<g>
	<path class="st4" d="M739.3,160.6l-99.8,97.6c-0.1,0.1-0.2,0.3-0.1,0.5l26.8,128.4l-98.1,4.9l-40.2-72.2c0,0,0-0.1-0.1-0.1
		L415.6,199.9l152.3-93L739.3,160.6z"/>
	<path class="st4" d="M568.3,391.4l-40.1-72c0-0.1-0.1-0.1-0.1-0.2L416.3,199.8l151.6-92.5l170.5,53.5l-99.2,97
		c-0.2,0.2-0.3,0.6-0.3,0.9l26.7,127.8L568.3,391.4 M567.8,392.4l99-4.9l-26.9-129l100.4-98.2l-172.5-54.1l-153,93.4l112.6,120.3
		L567.8,392.4L567.8,392.4z"/>
</g>
<g>
	<path class="st5" d="M1698.8,966.1l37.7,110.4c0,0.1,0.1,0.1,0.1,0.2l2.6,2.9h-100.6l-81.9-119.9l41.1-80.2L1698.8,966.1z"/>
	<path class="st5" d="M1638.8,1079l-81.6-119.5l40.6-79.3l100.4,86.2l37.9,110.2c0,0.1,0.1,0.2,0.2,0.3l1.8,2h-41.9H1644
		L1638.8,1079 M1638.3,1080h5.7h52.2h44.1l-3.3-3.7l-37.8-110.5l-101.6-87.2l-41.5,81L1638.3,1080L1638.3,1080z"/>
</g>
<g>
	<path class="st3" d="M1555.7,959.4c-0.1,0.2-0.1,0.4,0,0.5l81.7,119.6h-153.9l-38.2-78.1l46.3-121l105.2-1.3L1555.7,959.4z"/>
	<path class="st3" d="M1483.7,1079l-37.9-77.6l46.1-120.5l104.1-1.3l-40.7,79.5c-0.2,0.3-0.1,0.7,0.1,1l81,118.9h-111.1H1483.7
		 M1483.1,1080h42.2h113l-82.2-120.4l41.5-81l-106.4,1.3l-46.5,121.5L1483.1,1080L1483.1,1080z"/>
</g>
<g>
	<polygon class="st6" points="1919.5,1079.5 1858.2,1079.5 1885.6,1023.7 1919.5,939.4 	"/>
	<path class="st6" d="M1859,1079l27-55.1c0,0,0,0,0-0.1l33-81.8v64.8v30.8v41.4H1859 M1857.4,1080h62.6v-42.4v-30.8v-70l-34.9,86.7
		L1857.4,1080L1857.4,1080z"/>
</g>
<g>
	<polygon class="st5" points="1919.5,936.7 1884.6,1023.3 1857.1,1079.5 1740.5,1079.5 1737.6,1076.3 1775.4,1017.7 1841.4,909.8 
		1919.5,898.7 	"/>
	<path class="st5" d="M1740.8,1079l-2.5-2.8l37.6-58.3l65.8-107.7l77.3-10.9v37.4l-34.8,86.5l-27.4,55.8H1792H1740.8 M1740.3,1080
		h51.7h65.4l27.7-56.5l34.9-86.7v-38.7l-78.9,11.2l-66.1,108.1l-38,58.9L1740.3,1080L1740.3,1080z"/>
</g>
<g>
	<polygon class="st7" points="1328,592.4 1178.3,803.8 1154.2,698.1 1181,579.3 1302.6,458.5 	"/>
	<path class="st7" d="M1178.5,802.6l-23.9-104.5l26.8-118.6l120.9-120l25.2,132.8L1178.5,802.6 M1178,805l150.5-212.5l-25.6-135.1
		L1180.5,579l-26.9,119.1L1178,805L1178,805z"/>
</g>
<g>
	<path class="st2" d="M1180,579.3L1153.2,698c0,0.1,0,0.1,0,0.2l24,105.3l-131.9-125.2l2.4-93.1l31.5-66.9L1180,579.3z"/>
	<path class="st2" d="M1176.3,802l-130.6-123.9l2.4-92.7l31.2-66.3l100,60.5L1152.6,698c0,0.1,0,0.3,0,0.4L1176.3,802 M1178,805
		l-24.4-106.9l26.9-119.1l-101.6-61.4l-31.8,67.5l-2.4,93.4L1178,805L1178,805z"/>
</g>
<g>
	<polygon class="st9" points="495,0.6 456.4,29.6 338.5,5.2 340.6,0.6 	"/>
	<path class="st9" d="M456.2,29.1l-117-24.3l1.7-3.8h88.3h19.1h45.2L456.2,29.1 M456.5,30.2l40-30.1h-48.2h-19.1l-88.9,0l-2.5,5.5
		L456.5,30.2L456.5,30.2z"/>
</g>
<g>
	<path class="st8" d="M1036.4,0.6L877.1,60.4c0,0-0.1,0-0.1,0.1l-136,98.8L762.6,0.6H1036.4z"/>
	<path class="st8" d="M741.6,158.2L763,1.1h57.5h59.6h57.7h95.9L877,60c-0.1,0-0.2,0.1-0.2,0.1L741.6,158.2 M740.3,160.3l137-99.5
		L1039.2,0L937.8,0l-57.7,0l-59.6,0l-58.4,0L740.3,160.3L740.3,160.3z"/>
</g>
<path class="st10" d="M0.1,863.8"/>
<g>
	<polygon class="st3" points="171,890.3 72.1,872.2 99.5,848.4 190.3,769.4 	"/>
	<path class="st3" d="M170.6,889.7l-97.3-17.8l26.6-23.1l89.7-78.1L170.6,889.7 M171.4,890.9L191,768.1L99.2,848L71,872.5
		L171.4,890.9L171.4,890.9z"/>
</g>
<path class="st11" d="M89.4,848.4"/>
<path class="st11" d="M62.9,770.3"/>
<g>
	<path class="st0" d="M62.3,769.9l36.3,78l-27.4,23.8l-24-60.7c0-0.1-0.1-0.2-0.2-0.2L0.6,773.4v-14.1L62.3,769.9z"/>
	<path class="st0" d="M71.4,870.8l-23.8-60.1c-0.1-0.2-0.2-0.3-0.3-0.4L1.1,773v-13.2l60.8,10.5L98,847.7L71.4,870.8 M71,872.5
		L99.2,848l-36.6-78.6L0.1,758.6v14.9l46.6,37.6L71,872.5L71,872.5z"/>
</g>
<g>
	<polygon class="st3" points="0.5,833.4 27.6,858.9 0.6,883.4 	"/>
	<path class="st3" d="M1,834.5l25.8,24.4L1.1,882.2L1,834.5 M0,832.2l0.1,52.3l28.2-25.6L0,832.2L0,832.2z"/>
</g>
<g>
	<polygon class="st6" points="47.3,1079.5 86.1,1059.5 108.9,1079.5 	"/>
	<path class="st6" d="M86.1,1060.1l21.5,18.9H49.3L86.1,1060.1 M86.2,1058.9l-41,21.1h65L86.2,1058.9L86.2,1058.9z"/>
</g>
</svg>
